<svg width="15" height="14" viewBox="0 0 15 14" fill="none" xmlns="http://www.w3.org/2000/svg">
<path d="M7.43056 4.89867L7.75456 5.65649C7.77652 5.72239 7.83693 5.76083 7.89733 5.76632L8.72105 5.8432C8.89678 5.85967 8.96268 6.07384 8.83637 6.18916L8.21584 6.73282C8.16642 6.77675 8.14445 6.84265 8.16092 6.90305L8.34214 7.7103C8.38058 7.88053 8.19936 8.01233 8.0456 7.92446L7.3372 7.50162C7.28229 7.46867 7.2109 7.46867 7.15599 7.50162L6.44759 7.92446C6.29932 8.01233 6.11261 7.88053 6.15105 7.7103L6.33227 6.90305C6.34874 6.84265 6.32678 6.77675 6.27735 6.73282L5.65682 6.18916C5.52502 6.07384 5.59641 5.85967 5.77214 5.8432L6.59586 5.76632C6.66176 5.76083 6.71667 5.72239 6.74413 5.66198L7.06812 4.90416C7.13402 4.73942 7.35917 4.73942 7.43056 4.89867Z" stroke="#F0C932" stroke-width="0.549146" stroke-miterlimit="10" stroke-linecap="round" stroke-linejoin="round"/>
<path d="M10.9821 6.50482C10.9962 4.44248 9.33589 2.75912 7.27355 2.74493C5.21122 2.73074 3.52785 4.39109 3.51366 6.45343C3.49947 8.51577 5.15982 10.1991 7.22216 10.2133C9.2845 10.2275 10.9679 8.56716 10.9821 6.50482Z" stroke="#F0C932" stroke-width="0.549146" stroke-miterlimit="10" stroke-linecap="round" stroke-linejoin="round"/>
<path d="M6.73861 10.176L5.81055 12.5098L4.63538 11.1644L2.86163 11.3292L4.03681 8.38574" stroke="#F0C932" stroke-width="0.549146" stroke-miterlimit="10" stroke-linecap="round" stroke-linejoin="round"/>
<path d="M7.74907 10.176L8.68262 12.5098L9.8523 11.1644L11.6315 11.3292L10.4509 8.38574" stroke="#F0C932" stroke-width="0.549146" stroke-miterlimit="10" stroke-linecap="round" stroke-linejoin="round"/>
</svg>
